# xmcd CD database file
#
# Track frame offsets:
#	182
#	23467
#	53845
#	71632
#	96335
#	109807
#	130082
#	152565
#	173490
#	200675
#	225565
#	244015
#	279145
#
# Disc length: 4091 seconds
#
# Revision: 2
# Processed by: cddbd v1.4b41PL1 Copyright (c) Steve Scherf et al.
# Submitted via: Feurio! 1.50.2ß - http://www.feurio.com
#
DISCID=a10ff90d
DTITLE=Stefan Distelmann - My Lights
DYEAR=1900
DGENRE=
TTITLE0=ANOTHER MAN DONE GONE
TTITLE1=BLUES AND TROUBLE
TTITLE2=GADD AWAY(INSTR.)
TTITLE3=DER ALTE UND DIE KNEIPE
TTITLE4=TANTCHEN'S BOOGIE
TTITLE5=ERSTE BEGEGNUNGEN(INSTR.)
TTITLE6=KNEIPENLEBEN
TTITLE7=ZWIEGESPRÄCH
TTITLE8=RÜCKBLICK
TTITLE9=AUF EIN WORT NOCH
TTITLE10=LATINS MOVES
TTITLE11=JOHN HENRY
TTITLE12=REICHSBAHNBLUES-PARTOUT(INSTR.)
EXTD=
EXTT0=
EXTT1=
EXTT2=
EXTT3=
EXTT4=
EXTT5=
EXTT6=
EXTT7=
EXTT8=
EXTT9=
EXTT10=
EXTT11=
EXTT12=
PLAYORDER=
